<svg xmlns="http://www.w3.org/2000/svg" viewBox="0 0 1920 1080"><defs><style>.cls-1{fill:#04b2d9;}.cls-2{fill:#eb4a57;}.cls-3{fill:#ffc54d;}.cls-4{fill:#25262c;}.cls-5{fill:#fda2af;}.cls-6{fill:#fffbcc;}.cls-7{font-size:138.78px;font-family:Dubai-Medium, Dubai;font-weight:500;}</style></defs><title>Artboard 5</title><g id="Colores"><circle class="cls-1" cx="1229.36" cy="171" r="9.9"/><circle class="cls-1" cx="1225.4" cy="208.64" r="13.86"/><circle class="cls-1" cx="1156.08" cy="143.28" r="5.94"/><path class="cls-2" d="M1217.48,363.12c0,142.2-111.32,140.62-253.52,140.62s-261.44,1.58-261.44-140.62S817.8,105.64,960,105.64,1217.48,220.92,1217.48,363.12Z"/><path class="cls-3" d="M1253.71,491.57h141.21c15.75,0,28.52-7.84,28.52-17.51s-12.77-17.52-28.52-17.52H568.69c-15.75,0-28.52,7.85-28.52,17.52s12.77,17.51,28.52,17.51h64.16c7.14,2.9,12,8.8,12,15.61,0,9.68-9.85,17.52-22,17.52h3c-31.59,0-57.2,15.72-57.2,35.12S594.3,595,625.89,595H725.7c11.34,2.31,19.52,8.87,19.52,16.61,0,9.62-12.62,17.41-28.25,17.51H525.08c-15.75,0-28.52,7.85-28.52,17.52s12.77,17.51,28.52,17.51h826.23c15.75,0,28.52-7.84,28.52-17.51s-12.77-17.52-28.52-17.52h-60.73c-15.62-.1-28.24-7.89-28.24-17.51,0-7.74,8.18-14.3,19.51-16.61H1346c31.59,0,57.2-15.73,57.2-35.13s-25.61-35.12-57.2-35.12h-86a27,27,0,0,0,2.87-.17c-14-1.12-24.8-8.45-24.8-17.35C1238.06,500.36,1244.43,494.46,1253.71,491.57Z"/><path class="cls-1" d="M1052,137.33h91a5.24,5.24,0,0,1,5.23,5.23V144a5.23,5.23,0,0,1-5.23,5.23h-7a5.13,5.13,0,0,0-3.57,1.4,6,6,0,0,0,0,9.08,5.13,5.13,0,0,0,3.57,1.4h70.87a8.67,8.67,0,0,1,8.67,8.67v1.84a9.31,9.31,0,0,1-9.3,9.3h-22.39s-7.93,0-7.93,7.92c0,6.75,5.76,6.31,7.46,6a7.18,7.18,0,0,1,1-.09h4.89a10.38,10.38,0,0,1,10.38,10.38v7.66a9.89,9.89,0,0,1-9.68,9.88L1019.85,226c-11.1.21-18.54-8.21-18.26-19.31h0c.27-10.5,7.26-19.76,17.78-19.77l29.76,0s5.94,0,5.94-5.94c0-.15,0-.3,0-.44a5.93,5.93,0,0,0-5.21-5.66h0a16.66,16.66,0,0,1-14.59-16.53V154A16.69,16.69,0,0,1,1052,137.33Z"/><path class="cls-4" d="M1075.35,473.8A12.38,12.38,0,0,1,1063,461.44V428.25h-39.13a12.38,12.38,0,0,1-12.36-12.37V378.25a12.37,12.37,0,0,1,24.73,0v26.26H1063V346.56a12.37,12.37,0,0,1,24.73,0V461.44A12.37,12.37,0,0,1,1075.35,473.8Z"/><path d="M1075.35,335.7a10.87,10.87,0,0,1,10.86,10.86V461.44a10.86,10.86,0,0,1-21.72,0V426.75h-40.64A10.88,10.88,0,0,1,1013,415.88V378.25a10.87,10.87,0,0,1,21.73,0V406h29.77V346.56a10.87,10.87,0,0,1,10.86-10.86m0-3a13.86,13.86,0,0,0-13.86,13.86V403h-23.77V378.25a13.87,13.87,0,0,0-27.73,0v37.63a13.87,13.87,0,0,0,13.86,13.87h37.64v31.69a13.86,13.86,0,0,0,27.72,0V346.56a13.86,13.86,0,0,0-13.86-13.86Z"/><circle class="cls-5" cx="941.16" cy="347.49" r="56.51"/><circle class="cls-6" cx="941.16" cy="347.49" r="37.9"/><path class="cls-4" d="M878.56,473.8a12.38,12.38,0,0,1-12.37-12.36V428.25H827.06a12.38,12.38,0,0,1-12.36-12.37V378.25a12.37,12.37,0,0,1,24.73,0v26.26h26.76V346.56a12.37,12.37,0,0,1,24.73,0V461.44A12.37,12.37,0,0,1,878.56,473.8Z"/><path d="M878.56,335.7a10.87,10.87,0,0,1,10.86,10.86V461.44a10.87,10.87,0,0,1-21.73,0V426.75H827.06a10.88,10.88,0,0,1-10.86-10.87V378.25a10.87,10.87,0,0,1,21.73,0V406h29.76V346.56a10.88,10.88,0,0,1,10.87-10.86m0-3a13.87,13.87,0,0,0-13.87,13.86V403H840.93V378.25a13.87,13.87,0,0,0-27.73,0v37.63a13.87,13.87,0,0,0,13.86,13.87h37.63v31.69a13.87,13.87,0,0,0,27.73,0V346.56a13.86,13.86,0,0,0-13.86-13.86Z"/><circle class="cls-1" cx="675.49" cy="171" r="9.9"/><circle class="cls-1" cx="679.45" cy="208.64" r="13.86"/><circle class="cls-1" cx="748.77" cy="143.28" r="5.94"/><path class="cls-1" d="M852.9,137.33h-91a5.23,5.23,0,0,0-5.23,5.23V144a5.23,5.23,0,0,0,5.23,5.23h7a5.11,5.11,0,0,1,3.57,1.4,6,6,0,0,1,0,9.08,5.11,5.11,0,0,1-3.57,1.4H698a8.67,8.67,0,0,0-8.66,8.67v1.84a9.3,9.3,0,0,0,9.3,9.3H721s7.92,0,7.92,7.92c0,6.75-5.75,6.31-7.45,6a7.3,7.3,0,0,0-1-.09h-4.9a10.38,10.38,0,0,0-10.38,10.38v7.66a9.89,9.89,0,0,0,9.69,9.88L885,226c11.1.21,18.54-8.21,18.26-19.31h0c-.26-10.5-7.26-19.76-17.77-19.77l-29.76,0s-5.94,0-5.94-5.94v-.44a5.94,5.94,0,0,1,5.21-5.66h0a16.65,16.65,0,0,0,14.59-16.53V154A16.68,16.68,0,0,0,852.9,137.33Z"/><text class="cls-7" transform="translate(852.81 607.57)">404</text></g></svg>