<svg xmlns="http://www.w3.org/2000/svg" viewBox="0 0 988 829.53"><defs><style>.cls-1,.cls-2{fill:#04b2d9;}.cls-1{opacity:0.2;}</style></defs><title>corner</title><g id="Layer_2" data-name="Layer 2"><g id="Descktop"><path class="cls-1" d="M0,754s425.26,297.4,713.05-288.11c0,0,33.21-119.62,210.32-157.4,0,0,83-37.78,60.88-138.51S845.88,94.43,845.88,94.43,702,151.1,607.88,0H0Z"/><path class="cls-2" d="M.35,642.07S426.43,901,706.88,399.36c0,0,32.35-102.47,204.94-134.84,0,0,80.9-32.36,59.33-118.65-13.79-55.14-65-66.24-100.2-67.07a168.84,168.84,0,0,0-44.19,5C793.68,92,681.76,109.47,604.39.25H.34Z"/></g></g></svg>