<svg xmlns="http://www.w3.org/2000/svg" viewBox="0 0 215.23 192.8"><defs><style>.cls-1{fill:#009245;}.cls-2{fill:#10b343;}.cls-3{fill:#73026b;}.cls-4{fill:#f23054;}</style></defs><title>Logo</title><g id="Layer_2" data-name="Layer 2"><g id="Descktop"><rect class="cls-1" x="94.4" y="38.5" width="127.8" height="76.4" rx="6.81" transform="translate(287.64 -42.52) rotate(111.48)"/><rect class="cls-2" x="98.2" y="40.77" width="120.2" height="71.86" rx="6.81" transform="translate(287.64 -42.52) rotate(111.48)"/><circle class="cls-1" cx="166.55" cy="141.2" r="6.9"/><circle class="cls-1" cx="108.3" cy="118.28" r="6.9"/><circle class="cls-1" cx="208.3" cy="35.12" r="6.9"/><ellipse class="cls-1" cx="158.21" cy="76.66" rx="19.9" ry="23.5" transform="translate(28.93 195.81) rotate(-68.52)"/><circle class="cls-1" cx="150.05" cy="12.2" r="6.9"/><rect class="cls-1" x="-3.8" y="33.7" width="127.8" height="76.4" rx="6.81" transform="translate(98.26 -13.69) rotate(63.92)"/><rect class="cls-2" y="35.97" width="120.2" height="71.86" rx="6.81" transform="translate(98.26 -13.69) rotate(63.92)"/><circle class="cls-1" cx="113.27" cy="109.34" r="6.9"/><circle class="cls-1" cx="57.04" cy="136.86" r="6.9"/><circle class="cls-1" cx="63.16" cy="6.94" r="6.9"/><ellipse class="cls-1" cx="60.01" cy="71.94" rx="23.5" ry="19.9" transform="translate(-25.52 33.7) rotate(-26.08)"/><circle class="cls-1" cx="6.93" cy="34.46" r="6.9"/><rect class="cls-1" x="68.8" y="26.7" width="127.8" height="76.4" rx="6.81" transform="translate(197.6 -67.8) rotate(90)"/><rect class="cls-2" x="72.6" y="28.97" width="120.2" height="71.86" rx="6.81" transform="translate(197.6 -67.8) rotate(90)"/><circle class="cls-1" cx="164" cy="121.9" r="6.9"/><circle class="cls-1" cx="101.4" cy="121.9" r="6.9"/><circle class="cls-1" cx="164" cy="7.9" r="6.9"/><ellipse class="cls-1" cx="132.6" cy="64.9" rx="23.5" ry="19.9"/><circle class="cls-1" cx="101.4" cy="7.9" r="6.9"/><rect class="cls-1" x="18.6" y="25.7" width="127.8" height="76.4" rx="6.81" transform="translate(146.4 -18.6) rotate(90)"/><rect class="cls-2" x="22.4" y="27.97" width="120.2" height="71.86" rx="6.81" transform="translate(146.4 -18.6) rotate(90)"/><circle class="cls-1" cx="113.8" cy="120.9" r="6.9"/><circle class="cls-1" cx="51.2" cy="120.9" r="6.9"/><circle class="cls-1" cx="113.8" cy="6.9" r="6.9"/><ellipse class="cls-1" cx="82.4" cy="63.9" rx="23.5" ry="19.9"/><circle class="cls-1" cx="51.2" cy="6.9" r="6.9"/><rect class="cls-3" x="44.8" y="29.9" width="127.8" height="198" rx="16.37" transform="translate(237.6 20.2) rotate(90)"/><path class="cls-4" d="M166.57,100.47h32.8a0,0,0,0,1,0,0v33.06a16.4,16.4,0,0,1-16.4,16.4h0a16.4,16.4,0,0,1-16.4-16.4V100.47a0,0,0,0,1,0,0Z" transform="translate(308.17 -57.77) rotate(90)"/><circle class="cls-3" cx="174.9" cy="125.2" r="8"/></g></g></svg>